<?xml version="1.0" encoding="UTF-8" standalone="no"?>
<!-- Created with Inkscape (http://www.inkscape.org/) -->

<svg
   xmlns:dc="http://purl.org/dc/elements/1.1/"
   xmlns:cc="http://creativecommons.org/ns#"
   xmlns:rdf="http://www.w3.org/1999/02/22-rdf-syntax-ns#"
   xmlns:svg="http://www.w3.org/2000/svg"
   xmlns="http://www.w3.org/2000/svg"
   xmlns:sodipodi="http://sodipodi.sourceforge.net/DTD/sodipodi-0.dtd"
   xmlns:inkscape="http://www.inkscape.org/namespaces/inkscape"
   width="800"
   height="500"
   viewBox="0 0 211.66677 132.29167"
   version="1.1"
   id="svg8"
   inkscape:version="0.92.2 (30a58d1, 2017-08-07)"
   sodipodi:docname="main-logo.svg">
  <defs
     id="defs2">
    <inkscape:path-effect
       effect="perspective-envelope"
       up_left_point="143.77353,253.86379"
       up_right_point="174.34314,253.73057"
       down_left_point="139.6439,280.98491"
       down_right_point="166.74994,280.98491"
       id="path-effect1668"
       is_visible="true"
       deform_type="envelope_deformation"
       horizontal_mirror="false"
       vertical_mirror="false"
       overflow_perspective="false" />
    <inkscape:path-effect
       effect="perspective-envelope"
       up_left_point="115.52961,253.59736"
       up_right_point="139.57918,253.59736"
       down_left_point="115.52961,280.98491"
       down_right_point="135.9824,280.8517"
       id="path-effect1666"
       is_visible="true"
       deform_type="envelope_deformation"
       horizontal_mirror="false"
       vertical_mirror="false"
       overflow_perspective="false" />
    <inkscape:path-effect
       effect="perspective-envelope"
       up_left_point="79.318408,253.87383"
       up_right_point="112.56238,253.07455"
       down_left_point="83.847685,281.50773"
       down_right_point="112.56238,281.50773"
       id="path-effect1664"
       is_visible="true"
       deform_type="perspective"
       horizontal_mirror="false"
       vertical_mirror="false"
       overflow_perspective="false" />
    <inkscape:path-effect
       effect="perspective-envelope"
       up_left_point="41.661918,254.26343"
       up_right_point="75.737881,254.39664"
       down_left_point="51.120114,280.98491"
       down_right_point="80.800014,280.98491"
       id="path-effect1662"
       is_visible="true"
       deform_type="envelope_deformation"
       horizontal_mirror="false"
       vertical_mirror="false"
       overflow_perspective="false" />
    <inkscape:path-effect
       effect="perspective-envelope"
       up_left_point="168.08308,227.40182"
       up_right_point="182.43375,227.66825"
       down_left_point="163.72187,244.56601"
       down_right_point="176.51496,244.56601"
       id="path-effect1660"
       is_visible="true"
       deform_type="envelope_deformation"
       horizontal_mirror="false"
       vertical_mirror="false"
       overflow_perspective="false" />
    <inkscape:path-effect
       effect="perspective-envelope"
       up_left_point="161.26042,227.49791"
       up_right_point="168.11842,227.49791"
       down_left_point="157.53043,244.52888"
       down_right_point="163.98879,244.52888"
       id="path-effect1658"
       is_visible="true"
       deform_type="perspective"
       horizontal_mirror="false"
       vertical_mirror="false"
       overflow_perspective="false" />
    <inkscape:path-effect
       effect="perspective-envelope"
       up_left_point="144.28548,227.40182"
       up_right_point="161.32888,227.40182"
       down_left_point="142.15406,244.56601"
       down_right_point="157.59889,244.43279"
       id="path-effect1656"
       is_visible="true"
       deform_type="envelope_deformation"
       horizontal_mirror="false"
       vertical_mirror="false"
       overflow_perspective="false" />
    <inkscape:path-effect
       effect="perspective-envelope"
       up_left_point="125.48354,227.40182"
       up_right_point="142.52694,227.40182"
       down_left_point="125.48354,244.69922"
       down_right_point="139.86266,244.69922"
       id="path-effect1654"
       is_visible="true"
       deform_type="perspective"
       horizontal_mirror="false"
       vertical_mirror="false"
       overflow_perspective="false" />
    <inkscape:path-effect
       effect="perspective-envelope"
       up_left_point="89.91362,227.40182"
       up_right_point="108.35401,227.40182"
       down_left_point="91.91183,244.83243"
       down_right_point="108.35401,244.69922"
       id="path-effect1652"
       is_visible="true"
       deform_type="perspective"
       horizontal_mirror="false"
       vertical_mirror="false"
       overflow_perspective="false" />
    <inkscape:path-effect
       effect="perspective-envelope"
       up_left_point="69.916047,227.40182"
       up_right_point="87.035647,227.40182"
       down_left_point="72.97997,245.36529"
       down_right_point="88.501001,245.09886"
       id="path-effect1650"
       is_visible="true"
       deform_type="envelope_deformation"
       horizontal_mirror="false"
       vertical_mirror="false"
       overflow_perspective="false" />
    <inkscape:path-effect
       effect="perspective-envelope"
       up_left_point="49.576202,227.40182"
       up_right_point="68.321401,227.40182"
       down_left_point="53.705837,244.83243"
       down_right_point="71.25211,244.69922"
       id="path-effect1648"
       is_visible="true"
       deform_type="envelope_deformation"
       horizontal_mirror="false"
       vertical_mirror="false"
       overflow_perspective="false" />
    <inkscape:path-effect
       effect="perspective-envelope"
       up_left_point="32.545759,227.40182"
       up_right_point="50.147959,227.40182"
       down_left_point="38.407176,244.29958"
       down_right_point="53.611524,244.56601"
       id="path-effect1646"
       is_visible="true"
       deform_type="envelope_deformation"
       horizontal_mirror="false"
       vertical_mirror="false"
       overflow_perspective="false" />
    <inkscape:path-effect
       effect="perspective-envelope"
       up_left_point="163.72656,178.30837"
       up_right_point="196.00383,178.28276"
       down_left_point="154.46159,220.41885"
       down_right_point="183.93873,220.41885"
       id="path-effect1644"
       is_visible="true"
       deform_type="envelope_deformation"
       horizontal_mirror="false"
       vertical_mirror="false"
       overflow_perspective="false" />
    <inkscape:path-effect
       effect="perspective-envelope"
       up_left_point="101.0646,178.84122"
       up_right_point="162.26121,178.57479"
       down_left_point="103.86209,219.30656"
       down_right_point="155.06765,218.64049"
       id="path-effect1642"
       is_visible="true"
       deform_type="envelope_deformation"
       horizontal_mirror="false"
       vertical_mirror="false"
       overflow_perspective="false" />
    <inkscape:path-effect
       effect="perspective-envelope"
       up_left_point="57.650582,178.66853"
       up_right_point="102.2898,178.4021"
       down_left_point="66.17628,220.37169"
       down_right_point="104.02158,220.37169"
       id="path-effect1640"
       is_visible="true"
       deform_type="envelope_deformation"
       horizontal_mirror="false"
       vertical_mirror="false"
       overflow_perspective="false" />
    <inkscape:path-effect
       effect="perspective-envelope"
       up_left_point="14.654727,177.97818"
       up_right_point="54.553822,178.48815"
       down_left_point="30.557431,220.41885"
       down_right_point="62.813092,220.28564"
       id="path-effect1638"
       is_visible="true"
       deform_type="perspective"
       horizontal_mirror="false"
       vertical_mirror="false"
       overflow_perspective="false" />
    <inkscape:path-effect
       effect="perspective-envelope"
       up_left_point="84.304927,258.24039"
       up_right_point="109.46308,257.62656"
       down_left_point="87.732567,279.46269"
       down_right_point="109.46308,279.46269"
       id="path-effect1664-9"
       is_visible="true"
       deform_type="perspective"
       horizontal_mirror="false"
       vertical_mirror="false"
       overflow_perspective="false" />
    <inkscape:path-effect
       effect="perspective-envelope"
       up_left_point="83.092175,256.71216"
       up_right_point="109.98115,256.03641"
       down_left_point="86.755627,280.07496"
       down_right_point="109.98115,280.07496"
       id="path-effect1664-4"
       is_visible="true"
       deform_type="perspective"
       horizontal_mirror="false"
       vertical_mirror="false"
       overflow_perspective="false" />
    <inkscape:path-effect
       effect="perspective-envelope"
       up_left_point="114.12081,267.11894"
       up_right_point="97.976403,285.99885"
       down_left_point="97.50728,254.49544"
       down_right_point="83.203749,270.42494"
       id="path-effect1664-9-6"
       is_visible="true"
       deform_type="perspective"
       horizontal_mirror="false"
       vertical_mirror="false"
       overflow_perspective="false" />
    <inkscape:path-effect
       effect="perspective-envelope"
       up_left_point="115.11058,276.22994"
       up_right_point="91.526508,284.03279"
       down_left_point="107.42538,256.83149"
       down_right_point="86.943198,263.06206"
       id="path-effect1664-9-6-7"
       is_visible="true"
       deform_type="perspective"
       horizontal_mirror="false"
       vertical_mirror="false"
       overflow_perspective="false" />
    <inkscape:path-effect
       effect="perspective-envelope"
       up_left_point="100.22483,256.92204"
       up_right_point="115.37985,272.32716"
       down_left_point="87.2104,270.25199"
       down_right_point="99.925419,283.83775"
       id="path-effect1664-9-6-3"
       is_visible="true"
       deform_type="perspective"
       horizontal_mirror="false"
       vertical_mirror="false"
       overflow_perspective="false" />
  </defs>
  <sodipodi:namedview
     id="base"
     pagecolor="#ffffff"
     bordercolor="#666666"
     borderopacity="1.0"
     inkscape:pageopacity="0.0"
     inkscape:pageshadow="2"
     inkscape:zoom="1.4044217"
     inkscape:cx="238.362"
     inkscape:cy="199.72926"
     inkscape:document-units="mm"
     inkscape:current-layer="layer1"
     showgrid="false"
     units="px"
     inkscape:pagecheckerboard="true"
     inkscape:snap-text-baseline="false"
     inkscape:lockguides="false"
     inkscape:snap-others="true"
     inkscape:object-nodes="true"
     inkscape:snap-nodes="true"
     inkscape:snap-global="false"
     inkscape:snap-bbox="true"
     inkscape:window-width="1855"
     inkscape:window-height="1056"
     inkscape:window-x="65"
     inkscape:window-y="24"
     inkscape:window-maximized="1" />
  <metadata
     id="metadata5">
    <rdf:RDF>
      <cc:Work
         rdf:about="">
        <dc:format>image/svg+xml</dc:format>
        <dc:type
           rdf:resource="http://purl.org/dc/dcmitype/StillImage" />
        <dc:title />
      </cc:Work>
    </rdf:RDF>
  </metadata>
  <g
     inkscape:groupmode="layer"
     id="layer3"
     inkscape:label="Layer 2"
     transform="translate(0,-105.83333)" />
  <g
     inkscape:label="Layer 1"
     inkscape:groupmode="layer"
     id="layer1"
     transform="translate(0,-164.70832)"
     style="display:inline">
    <path
       style="fill:#42adf4;fill-opacity:1;stroke:#00bedd;stroke-width:0.18649963;stroke-linecap:butt;stroke-linejoin:round;stroke-miterlimit:4;stroke-dasharray:none;stroke-opacity:1"
       d="m 100.25329,278.56846 c -0.10478,-0.0643 -0.14262,-0.37666 -0.14324,-1.18255 -5.3e-4,-0.68437 0.009,-0.82587 0.0926,-1.32803 0.0513,-0.30913 0.0887,-0.63875 0.0833,-0.7325 l -0.01,-0.17046 -0.14987,-0.0222 c -0.0824,-0.0122 -0.281972,-0.0391 -0.443442,-0.0597 -0.60343,-0.0771 -1.199258,-0.35284 -1.586611,-0.73433 -0.348803,-0.34353 -0.35079,-0.35051 -0.3532,-1.2415 l -0.0021,-0.75859 -0.58076,-0.40267 c -0.796478,-0.55225 -1.211234,-0.88019 -1.657549,-1.31058 -0.566417,-0.54622 -0.872701,-0.94418 -1.144277,-1.48678 -0.272217,-0.54387 -0.332762,-0.87855 -0.177353,-0.98037 0.07115,-0.0466 0.10609,-0.0486 0.250314,-0.014 0.383416,0.092 1.021572,0.48565 1.614667,0.99608 0.380913,0.32781 1.519643,1.46434 1.865577,1.86196 0.12822,0.14738 0.240618,0.26867 0.249778,0.26955 0.0092,8e-4 0.165983,-0.13799 0.348501,-0.30861 l 0.331853,-0.31021 -0.4035,-1.11284 c -0.670422,-1.84902 -0.773176,-2.22519 -0.799779,-2.92789 -0.02098,-0.55453 0.01738,-0.81377 0.140086,-0.94616 0.09163,-0.0989 0.234064,-0.11322 0.379129,-0.0382 0.171302,0.0886 0.464164,0.4434 0.600974,0.7281 0.32268,0.67148 0.53284,1.45723 0.76882,2.87441 0.0898,0.53948 0.17091,0.99315 0.18019,1.00816 0.009,0.015 0.16346,0.0355 0.342642,0.0455 0.41708,0.0233 0.80515,0.1482 1.12426,0.36193 0.45737,0.30634 0.98166,0.93848 1.15111,1.38788 0.078,0.20697 0.0885,0.46922 0.0459,1.14755 l -0.0225,0.35801 h 0.46939 c 0.5499,0 1.01823,0.0592 1.75386,0.22157 1.1845,0.26149 1.4154,0.33783 1.4154,0.46797 0,0.14133 -0.36991,0.60356 -1.01994,1.27448 -1.1728,1.2105 -2.13791,1.92262 -3.59259,2.65085 -0.82172,0.41135 -1.0119,0.48159 -1.12171,0.41424 z"
       id="path1804"
       inkscape:connector-curvature="0" />
    <path
       style="fill:#42adf4;stroke:#000000;stroke-width:0.26458332px;stroke-linecap:butt;stroke-linejoin:miter;stroke-opacity:1;fill-opacity:1"
       d="m 101.07288,280.1388 c -0.28585,0.6172 -0.9348,-0.94739 -0.98906,-3.20269 0.28887,-1.19092 0.26442,-1.81067 0.32969,-1.83683 0,0 -1.628462,0.13886 -2.543307,-1.03616 -0.11998,-0.1541 -0.218257,-1.40032 -0.0471,-1.74263 -1.461936,-0.88314 -2.770671,-1.86842 -3.485272,-3.24979 -0.660178,-1.57991 0.241223,-0.7307 0.612278,-0.70647 1.420812,0.90075 2.260107,1.94688 3.202684,2.96719 l 0.753565,-0.65938 c -0.506175,-1.37362 -1.119875,-2.81891 -1.271646,-3.95625 -0.03007,-1.22342 0.265881,-1.52309 0.989061,-0.61228 0.821575,1.79391 0.790145,2.9054 1.036155,4.23885 1.093982,-0.16397 1.756762,0.42665 2.354922,1.13036 l 0.37678,0.75357 c 0.0469,0.50102 -0.0817,0.66074 -0.0942,1.36585 1.05677,-0.1673 2.5904,0.28258 2.5904,0.28258 l 2.35492,0.5652 -0.47099,1.93103"
       id="path1733"
       inkscape:connector-curvature="0"
       sodipodi:nodetypes="cccscccccccccccccc" />
    <path
       style="fill:#42adf4;fill-opacity:1;stroke:#00bedd;stroke-width:0.26375031;stroke-linecap:butt;stroke-linejoin:round;stroke-miterlimit:4;stroke-dasharray:none;stroke-opacity:1"
       d="m 100.32995,278.19165 c -0.0919,-0.65901 -0.0886,-1.21529 0.0103,-1.73035 0.15341,-0.79891 0.20585,-1.25548 0.15056,-1.31077 -0.0263,-0.0263 -0.0478,-0.086 -0.0478,-0.13261 0,-0.0734 -0.0433,-0.0848 -0.32215,-0.0848 -0.798622,0 -1.724099,-0.41636 -2.085676,-0.93832 -0.104553,-0.15093 -0.111678,-0.20346 -0.111803,-0.82422 -6.8e-5,-0.36466 0.01736,-0.71852 0.03875,-0.78635 0.03728,-0.11828 0.0084,-0.14361 -0.706475,-0.61879 -1.180563,-0.78477 -1.869239,-1.40448 -2.411309,-2.16983 -0.243033,-0.34314 -0.501936,-0.87626 -0.549674,-1.13187 -0.0326,-0.17454 -0.02959,-0.18038 0.07563,-0.14698 0.779637,0.24744 1.674241,0.95877 2.986225,2.37445 l 0.788927,0.85127 0.265686,-0.2304 c 0.14613,-0.12672 0.357617,-0.31227 0.469977,-0.41233 l 0.20429,-0.18192 -0.35212,-0.94197 c -0.741188,-1.98273 -0.926688,-2.64317 -0.927347,-3.30163 -5.29e-4,-0.47868 0.06159,-0.72527 0.182566,-0.72527 0.04377,0 0.178337,0.10067 0.299029,0.22371 0.177662,0.18112 0.259831,0.32727 0.431562,0.76756 0.33528,0.85963 0.43215,1.28747 0.72465,3.20047 l 0.0828,0.54163 0.31256,-0.0156 c 0.372082,-0.0186 0.819382,0.0855 1.120812,0.26079 0.39515,0.2298 0.88691,0.75371 1.09523,1.16682 0.20912,0.41471 0.20359,0.33365 0.10192,1.49406 l -0.0318,0.36275 0.48939,-0.0272 c 0.60821,-0.0338 1.21653,0.0509 2.36133,0.329 l 0.83579,0.20301 -0.26743,0.32682 c -0.8892,1.08669 -2.00992,2.08566 -3.13517,2.79457 -0.4696,0.29585 -1.39972,0.7793 -1.81189,0.94175 l -0.23653,0.0932 z"
       id="path1790"
       inkscape:connector-curvature="0" />
    <path
       style="fill:#42adf4;fill-opacity:1;stroke:none;stroke-width:0.18649963;stroke-linecap:butt;stroke-linejoin:round;stroke-miterlimit:4;stroke-dasharray:none;stroke-opacity:1"
       d="m 100.2954,278.50399 c -0.0693,-0.0439 -0.13338,-0.60078 -0.13478,-1.17143 -10e-4,-0.38997 0.0186,-0.60438 0.0988,-1.08237 0.12975,-0.77334 0.14903,-1.00554 0.0924,-1.11227 -0.0414,-0.0779 -0.0655,-0.0845 -0.376392,-0.10302 -0.52179,-0.031 -1.01596,-0.18413 -1.454793,-0.4507 -0.249973,-0.15186 -0.559771,-0.45386 -0.638289,-0.62223 -0.07333,-0.15725 -0.105603,-0.81844 -0.06345,-1.29973 l 0.02869,-0.3276 -0.09006,-0.0758 c -0.04953,-0.0417 -0.297429,-0.21537 -0.550876,-0.38597 -1.323938,-0.89118 -2.14163,-1.66407 -2.627111,-2.48318 -0.218414,-0.36851 -0.386218,-0.77483 -0.40731,-0.98626 -0.01413,-0.14163 -0.0077,-0.16067 0.06585,-0.19417 0.168777,-0.0769 0.848841,0.26324 1.434668,0.71756 0.540772,0.41938 1.620224,1.48396 2.378446,2.34566 l 0.100618,0.11435 0.387699,-0.34253 c 0.213228,-0.18839 0.387698,-0.358 0.387698,-0.37692 0,-0.0189 -0.10688,-0.32087 -0.2375,-0.67101 -0.809518,-2.16993 -0.994729,-2.82786 -0.994729,-3.53358 0,-0.57919 0.08711,-0.81639 0.29981,-0.81639 0.0734,0 0.151524,0.0506 0.317132,0.20555 0.268473,0.25115 0.433167,0.5688 0.679047,1.30976 0.19006,0.57271 0.31394,1.14367 0.48415,2.23133 0.0659,0.42129 0.12817,0.8072 0.13831,0.85757 0.0179,0.089 0.0247,0.0916 0.24281,0.0916 0.449512,0 0.910542,0.12549 1.237582,0.33687 0.57902,0.37424 1.1646,1.14683 1.22902,1.62151 0.0135,0.0998 0.005,0.41958 -0.0193,0.71768 -0.0241,0.29575 -0.0443,0.55272 -0.0449,0.57104 -7.9e-4,0.0211 0.16004,0.0292 0.43949,0.0222 0.6852,-0.0173 1.26106,0.0712 2.6234,0.40336 0.52928,0.12903 0.5838,0.14899 0.59359,0.21737 0.0159,0.11126 -0.5173,0.73775 -1.23919,1.4559 -0.81202,0.80781 -1.58424,1.42154 -2.39014,1.89957 -0.52664,0.31238 -1.82124,0.9494 -1.9239,0.94668 -0.0106,-2.7e-4 -0.0405,-0.0139 -0.0664,-0.0304 z"
       id="path1792"
       inkscape:connector-curvature="0" />
    <path
       style="fill:#42adf4;fill-opacity:1;stroke:#42adf4;stroke-width:0.18649963;stroke-linecap:butt;stroke-linejoin:round;stroke-miterlimit:4;stroke-dasharray:none;stroke-opacity:1"
       d="m 100.2954,278.50399 c -0.0693,-0.0439 -0.13338,-0.60078 -0.13478,-1.17143 -10e-4,-0.38997 0.0186,-0.60438 0.0988,-1.08237 0.12975,-0.77334 0.14903,-1.00554 0.0924,-1.11227 -0.0414,-0.0779 -0.0655,-0.0845 -0.376392,-0.10302 -0.52179,-0.031 -1.01596,-0.18413 -1.454793,-0.4507 -0.249973,-0.15186 -0.559771,-0.45386 -0.638289,-0.62223 -0.07333,-0.15725 -0.105603,-0.81844 -0.06345,-1.29973 l 0.02869,-0.3276 -0.09006,-0.0758 c -0.04953,-0.0417 -0.297429,-0.21537 -0.550876,-0.38597 -1.323938,-0.89118 -2.14163,-1.66407 -2.627111,-2.48318 -0.218414,-0.36851 -0.386218,-0.77483 -0.40731,-0.98626 -0.01413,-0.14163 -0.0077,-0.16067 0.06585,-0.19417 0.168777,-0.0769 0.848841,0.26324 1.434668,0.71756 0.540772,0.41938 1.620224,1.48396 2.378446,2.34566 l 0.100618,0.11435 0.387699,-0.34253 c 0.213228,-0.18839 0.387698,-0.358 0.387698,-0.37692 0,-0.0189 -0.10688,-0.32087 -0.2375,-0.67101 -0.809518,-2.16993 -0.994729,-2.82786 -0.994729,-3.53358 0,-0.57919 0.08711,-0.81639 0.29981,-0.81639 0.0734,0 0.151524,0.0506 0.317132,0.20555 0.268473,0.25115 0.433167,0.5688 0.679047,1.30976 0.19006,0.57271 0.31394,1.14367 0.48415,2.23133 0.0659,0.42129 0.12817,0.8072 0.13831,0.85757 0.0179,0.089 0.0247,0.0916 0.24281,0.0916 0.449512,0 0.910542,0.12549 1.237582,0.33687 0.57902,0.37424 1.1646,1.14683 1.22902,1.62151 0.0135,0.0998 0.005,0.41958 -0.0193,0.71768 -0.0241,0.29575 -0.0443,0.55272 -0.0449,0.57104 -7.9e-4,0.0211 0.16004,0.0292 0.43949,0.0222 0.6852,-0.0173 1.26106,0.0712 2.6234,0.40336 0.52928,0.12903 0.5838,0.14899 0.59359,0.21737 0.0159,0.11126 -0.5173,0.73775 -1.23919,1.4559 -0.81202,0.80781 -1.58424,1.42154 -2.39014,1.89957 -0.52664,0.31238 -1.82124,0.9494 -1.9239,0.94668 -0.0106,-2.7e-4 -0.0405,-0.0139 -0.0664,-0.0304 z"
       id="path1802"
       inkscape:connector-curvature="0" />
    <path
       inkscape:connector-curvature="0"
       id="path1612"
       style="font-style:normal;font-variant:normal;font-weight:normal;font-stretch:normal;font-size:57.85555649px;line-height:1.25;font-family:'URW Bookman L';-inkscape-font-specification:'URW Bookman L, Normal';font-variant-ligatures:normal;font-variant-caps:normal;font-variant-numeric:normal;font-feature-settings:normal;text-align:start;letter-spacing:0px;word-spacing:0px;writing-mode:lr-tb;text-anchor:start;fill:#000000;fill-opacity:1;stroke:none;stroke-width:0.26458332"
       d="m 31.962694,212.83206 c 1.545312,4.38597 1.335308,5.47876 -0.911784,5.84776 0,0 -1.085763,0.15836 -1.085763,0.15836 0,0 0.592284,1.58067 0.592284,1.58067 0,0 13.747343,-0.0568 13.747343,-0.0568 6.92852,-0.0286 10.355735,-1.15245 12.778838,-4.3056 2.396568,-3.09212 3.228708,-8.42644 2.09023,-14.18791 -1.169713,-5.91954 -4.484869,-12.48834 -8.549136,-16.55936 -4.7897,-4.76335 -10.587509,-7.0066 -18.935706,-7.11331 0,0 -17.034273,-0.21772 -17.034273,-0.21772 0,0 0.883102,2.3568 0.883102,2.3568 0,0 1.472804,0.24178 1.472804,0.24178 3.06886,0.55719 4.334534,2.12014 6.40173,7.98735 0,0 8.550331,24.26795 8.550331,24.26795 z m -3.482539,-24.98923 c -0.905478,-2.7643 -1.168377,-4.06256 -0.916287,-4.78613 0.299028,-1.09484 2.474416,-1.80772 5.266219,-1.77547 5.945924,0.0687 10.934995,2.67223 14.80916,7.69732 2.608161,3.39697 4.635937,7.83295 5.679483,12.44519 1.076808,4.75926 0.977387,9.07682 -0.267336,11.87283 -1.442678,3.24469 -4.663175,4.96461 -9.234518,4.97965 -2.223857,0.007 -4.236759,-0.45144 -5.094508,-1.12527 -0.674993,-0.5219 -1.089182,-1.36509 -1.79105,-3.5078 0,0 -8.451163,-25.80032 -8.451163,-25.80032 z"
       inkscape:path-effect="#path-effect1638"
       inkscape:original-d="m 22.576243,211.42158 c 0,4.74416 -0.752122,5.95912 -3.760611,6.36411 l -1.446389,0.17357 v 1.79352 h 17.645944 c 8.967612,0 13.769623,-1.27282 17.819512,-4.80201 3.876322,-3.35562 6.2484,-8.90976 6.2484,-14.5796 0,-5.49627 -2.256367,-11.22397 -5.785556,-14.5796 -3.992033,-3.76061 -9.546167,-5.43842 -18.282356,-5.43842 H 17.369243 v 1.79352 l 1.446389,0.17357 c 3.008489,0.40499 3.760611,1.61996 3.760611,6.36411 z m 5.785555,-23.37364 c 0,-2.25637 0.173567,-3.29777 0.694267,-3.87632 0.694267,-0.86784 3.239911,-1.44639 6.190545,-1.44639 6.306255,0 10.9347,2.02494 13.827478,6.13269 2.024944,2.89278 3.182055,6.82695 3.182055,11.10826 0,4.62845 -1.330678,9.02547 -3.702755,11.9761 -2.834923,3.52919 -7.521223,5.43842 -13.364634,5.43842 -2.834922,0 -5.207,-0.5207 -6.016978,-1.27282 -0.636411,-0.57855 -0.809978,-1.50424 -0.809978,-3.81847 z" />
    <path
       inkscape:connector-curvature="0"
       id="path1614"
       style="font-style:normal;font-variant:normal;font-weight:normal;font-stretch:normal;font-size:57.85555649px;line-height:1.25;font-family:'URW Bookman L';-inkscape-font-specification:'URW Bookman L, Normal';font-variant-ligatures:normal;font-variant-caps:normal;font-variant-numeric:normal;font-feature-settings:normal;text-align:start;letter-spacing:0px;word-spacing:0px;writing-mode:lr-tb;text-anchor:start;fill:#000000;fill-opacity:1;stroke:none;stroke-width:0.26458332"
       d="m 80.157751,178.5342 c -12.566503,0.075 -20.638027,9.27717 -18.274467,20.83845 2.435914,11.91519 12.455708,20.99904 23.162641,20.99904 5.830508,0 11.338323,-2.96444 14.601953,-7.77142 2.516472,-3.56438 3.719692,-8.07848 3.513932,-13.06496 C 102.65722,187.30654 92.974332,178.4577 80.157751,178.5342 Z m 0.222516,2.84115 c 9.033589,-0.0508 15.214537,7.09259 15.993794,18.53762 0.726769,10.67412 -3.843991,17.61468 -11.623334,17.61835 -7.832992,0.004 -14.079005,-7.07975 -16.037055,-18.1218 -1.926637,-10.8649 2.694881,-17.98374 11.666595,-18.03417 z"
       inkscape:path-effect="#path-effect1640"
       inkscape:original-d="m 82.741432,179.60103 c -11.628967,0 -20.828001,8.96761 -20.828001,20.3073 0,11.68682 8.909756,20.59657 20.596578,20.59657 6.364112,0 12.612512,-2.89277 16.430969,-7.57907 2.834932,-3.47134 4.281322,-7.86836 4.281322,-12.72822 0,-11.91825 -8.620479,-20.59658 -20.480868,-20.59658 z m -0.115712,2.77707 c 8.446912,0 13.769623,7.00052 13.769623,18.16664 0,10.414 -5.438422,17.1831 -13.827478,17.1831 -8.446911,0 -13.827478,-6.94267 -13.827478,-17.76166 0,-10.64542 5.496278,-17.58808 13.885333,-17.58808 z" />
    <path
       inkscape:connector-curvature="0"
       id="path1616"
       style="font-style:normal;font-variant:normal;font-weight:normal;font-stretch:normal;font-size:57.85555649px;line-height:1.25;font-family:'URW Bookman L';-inkscape-font-specification:'URW Bookman L, Normal';font-variant-ligatures:normal;font-variant-caps:normal;font-variant-numeric:normal;font-feature-settings:normal;text-align:start;letter-spacing:0px;word-spacing:0px;writing-mode:lr-tb;text-anchor:start;fill:#000000;fill-opacity:1;stroke:none;stroke-width:0.26458332"
       d="m 139.51409,218.84281 c 0,0 14.61017,-31.93321 14.61017,-31.93321 2.69114,-5.19256 3.93713,-6.25751 7.80949,-6.51097 0,0 0.32746,-1.82384 0.32746,-1.82384 0,0 -15.20862,0.0662 -15.20862,0.0662 0,0 -0.21443,1.82836 -0.21443,1.82836 2.17914,0.28441 2.41095,0.34224 2.91874,0.57548 1.11588,0.58366 1.72849,1.75849 1.55802,2.99605 -0.0812,0.58932 -0.39508,1.59214 -0.65129,2.18249 0,0 -10.37147,24.59439 -10.37147,24.59439 0,0 -5.88897,-26.21373 -5.88897,-26.21373 -0.14916,-0.41273 -0.18071,-0.82611 -0.14541,-1.358 0.0785,-1.18199 0.79038,-2.01254 2.00682,-2.3137 0.67141,-0.18035 0.91538,-0.24056 2.54653,-0.42536 0,0 0.15433,-1.83077 0.15433,-1.83077 0,0 -16.53636,0.072 -16.53636,0.072 0,0 -0.0314,1.83568 -0.0314,1.83568 3.92407,0.86914 5.35096,2.51846 6.64325,7.95212 0,0 -7.27133,22.60429 -7.27133,22.60429 0,0 -8.15191,-26.00797 -8.15191,-26.00797 -0.24826,-0.65104 -0.37954,-1.30276 -0.39168,-1.8958 -0.0352,-1.71984 0.96881,-2.377 4.2596,-2.62963 0,0 -0.005,-1.83715 -0.005,-1.83715 0,0 -16.41566,0.0715 -16.41566,0.0715 0,0 0.12735,1.84203 0.12735,1.84203 4.18618,0.99011 4.62483,1.40371 6.69122,6.49942 0,0 10.876,31.93011 10.876,31.93011 0,0 2.97942,-0.0387 2.97942,-0.0387 0,0 8.73902,-25.93619 8.73902,-25.93619 0,0 6.05706,25.74372 6.05706,25.74372 0,0 2.97942,-0.0388 2.97942,-0.0388 z"
       inkscape:path-effect="#path-effect1642"
       inkscape:original-d="m 140.57849,218.90692 11.22397,-31.24199 c 1.85138,-5.09129 2.89278,-6.13269 6.59554,-6.36412 v -1.79352 h -14.5796 v 1.79352 c 2.14065,0.28928 2.37207,0.34714 2.89277,0.57856 1.15712,0.57856 1.90924,1.73567 1.90924,2.95063 0,0.57856 -0.17357,1.5621 -0.34714,2.14066 l -7.75264,24.06791 -8.44691,-25.74572 c -0.17357,-0.40499 -0.23142,-0.80998 -0.23142,-1.33068 0,-1.15711 0.63641,-1.96709 1.79352,-2.25637 0.63641,-0.17356 0.86783,-0.23142 2.42993,-0.40499 v -1.79352 h -15.85242 v 1.79352 c 3.81847,0.86784 5.26485,2.48779 6.7691,7.8105 l -6.88481,22.04297 -8.44691,-25.45644 c -0.23143,-0.63641 -0.34714,-1.27283 -0.34714,-1.85138 0,-1.67781 0.98355,-2.31422 4.1656,-2.54565 v -1.79352 H 99.732458 v 1.79352 c 3.992042,0.98355 4.397022,1.38854 6.190552,6.36412 l 10.87684,31.24199 h 3.41348 l 8.44691,-25.28287 8.50477,25.28287 z" />
    <path
       inkscape:connector-curvature="0"
       id="path1618"
       style="font-style:normal;font-variant:normal;font-weight:normal;font-stretch:normal;font-size:57.85555649px;line-height:1.25;font-family:'URW Bookman L';-inkscape-font-specification:'URW Bookman L, Normal';font-variant-ligatures:normal;font-variant-caps:normal;font-variant-numeric:normal;font-feature-settings:normal;text-align:start;letter-spacing:0px;word-spacing:0px;writing-mode:lr-tb;text-anchor:start;fill:#000000;fill-opacity:1;stroke:none;stroke-width:0.26458332"
       d="m 169.45824,182.94128 c 0,0 6.9418,37.47757 6.9418,37.47757 0,0 3.72699,0 3.72699,0 0,0 9.22837,-33.22364 9.22837,-33.22364 1.40917,-5.07326 2.36979,-6.37296 4.8917,-6.80786 0,0 1.20751,-0.1865 1.20751,-0.1865 0,0 0.54922,-1.91809 0.54922,-1.91809 0,0 -11.45473,0.009 -11.45473,0.009 0,0 -0.50398,1.91767 -0.50398,1.91767 0,0 1.56734,0.18436 1.56734,0.18436 2.27107,0.30755 2.51274,1.79184 1.14803,6.80298 0,0 -6.65508,24.43703 -6.65508,24.43703 0,0 -6.03714,-33.33373 -6.03714,-33.33373 0,0 -10.34171,0.008 -10.34171,0.008 0,0 -0.42175,1.91692 -0.42175,1.91692 0,0 1.11355,0.18464 1.11355,0.18464 2.30265,0.43107 2.60551,1.72928 1.44631,6.80025 0,0 -5.5557,24.30355 -5.5557,24.30355 -1.15921,5.07098 -2.0098,6.36966 -4.32098,6.80264 0,0 -1.10465,0.18556 -1.10465,0.18556 0,0 -0.42175,1.91692 -0.42175,1.91692 0,0 10.46099,0 10.46099,0 0,0 0.46699,-1.91733 0.46699,-1.91733 0,0 -1.44416,-0.18549 -1.44416,-0.18549 -2.09743,-0.30914 -2.34622,-1.79336 -1.17387,-6.80274 0,0 6.6867,-28.57201 6.6867,-28.57201 z"
       inkscape:path-effect="#path-effect1644"
       inkscape:original-d="m 167.49564,184.69232 21.46441,35.06046 h 5.09129 v -31.06843 c 0,-4.74415 0.75212,-5.95912 3.76061,-6.36411 l 1.44639,-0.17357 v -1.79352 h -14.29033 v 1.79352 l 2.02495,0.17357 c 2.95063,0.28928 3.76061,1.67781 3.76061,6.36411 v 22.85294 l -18.86091,-31.18414 h -12.90179 v 1.79352 l 1.44639,0.17357 c 3.00849,0.40499 3.76061,1.61996 3.76061,6.36411 v 22.73723 c 0,4.74416 -0.75212,5.95912 -3.76061,6.36411 l -1.44639,0.17357 v 1.79352 h 14.29032 v -1.79352 l -2.02494,-0.17357 c -2.95064,-0.28928 -3.76061,-1.67781 -3.76061,-6.36411 z" />
    <path
       inkscape:connector-curvature="0"
       id="path1593"
       style="font-style:normal;font-variant:normal;font-weight:normal;font-stretch:normal;font-size:25.39999962px;line-height:1.25;font-family:'URW Bookman L';-inkscape-font-specification:'URW Bookman L, Normal';font-variant-ligatures:normal;font-variant-caps:normal;font-variant-numeric:normal;font-feature-settings:normal;text-align:start;letter-spacing:0px;word-spacing:0px;writing-mode:lr-tb;text-anchor:start;fill:#000000;fill-opacity:1;stroke:none;stroke-width:0.26458332"
       d="m 48.725559,227.40182 c 0,0 -14.732,0 -14.732,0 0,0 0.06705,4.36712 0.06705,4.36712 0,0 0.909963,0.30126 0.909963,0.30126 0.595721,-2.57971 1.960576,-3.72203 4.279613,-3.72005 0.831828,7.1e-4 1.180085,0.25075 1.393026,1.00017 0,0 3.258001,11.4662 3.258001,11.4662 0.574942,2.02345 0.420398,2.64253 -0.656537,2.72415 0,0 -0.839514,0.0605 -0.839514,0.0605 0,0 0.23642,0.77259 0.23642,0.77259 0,0 6.757488,0.11841 6.757488,0.11841 0,0 -0.187908,-0.77797 -0.187908,-0.77797 0,0 -0.880577,-0.0895 -0.880577,-0.0895 -1.131688,-0.11844 -1.628431,-0.74982 -2.162217,-2.77784 0,0 -2.998427,-11.39196 -2.998427,-11.39196 -0.230648,-0.87631 -0.0883,-1.10147 0.743526,-1.10076 2.218209,0.002 4.422451,1.31147 6.335098,3.78241 0,0 0.794536,-0.29874 0.794536,-0.29874 0,0 -2.317536,-4.43597 -2.317536,-4.43597 z"
       inkscape:path-effect="#path-effect1646"
       inkscape:original-d="m 48.725559,227.40182 h -14.732 l -1.4478,4.4704 0.8382,0.3048 c 1.4986,-2.6416 3.2512,-3.81 5.588,-3.81 0.8382,0 1.1176,0.254 1.1176,1.016 v 11.6586 c 0,2.0574 -0.381,2.6924 -1.651,2.794 l -0.9906,0.0762 v 0.7874 h 7.8232 v -0.7874 l -0.9906,-0.0762 c -1.27,-0.1016 -1.651,-0.7366 -1.651,-2.794 v -11.557 c 0,-0.889 0.2032,-1.1176 1.0414,-1.1176 2.2352,0 4.1656,1.3208 5.588,3.81 l 0.889,-0.3048 z" />
    <path
       inkscape:connector-curvature="0"
       id="path1595"
       style="font-style:normal;font-variant:normal;font-weight:normal;font-stretch:normal;font-size:25.39999962px;line-height:1.25;font-family:'URW Bookman L';-inkscape-font-specification:'URW Bookman L, Normal';font-variant-ligatures:normal;font-variant-caps:normal;font-variant-numeric:normal;font-feature-settings:normal;text-align:start;letter-spacing:0px;word-spacing:0px;writing-mode:lr-tb;text-anchor:start;fill:#000000;fill-opacity:1;stroke:none;stroke-width:0.26458332"
       d="m 56.046172,234.88658 c 0,0 -0.836012,-3.80624 -0.836012,-3.80624 -0.460087,-2.09471 -0.248986,-2.63131 1.028538,-2.81057 0,0 0.616784,-0.0768 0.616784,-0.0768 0,0 -0.16728,-0.79116 -0.16728,-0.79116 0,0 -7.112,0 -7.112,0 0,0 0.187986,0.79346 0.187986,0.79346 0,0 0.651165,0.0766 0.651165,0.0766 1.357745,0.17855 1.80951,0.71542 2.289159,2.8123 0,0 2.298804,10.0497 2.298804,10.0497 0.479649,2.09689 0.292134,2.6361 -0.907244,2.82404 0,0 -0.578221,0.0811 -0.578221,0.0811 0,0 0.187986,0.79346 0.187986,0.79346 0,0 6.657123,-0.0505 6.657123,-0.0505 0,0 -0.16728,-0.79116 -0.16728,-0.79116 0,0 -0.612602,-0.0723 -0.612602,-0.0723 -1.279599,-0.16988 -1.707778,-0.70412 -2.167866,-2.79883 0,0 -1.127774,-5.1346 -1.127774,-5.1346 0,0 8.806245,-0.0319 8.806245,-0.0319 0,0 0.956116,5.11552 0.956116,5.11552 0.390056,2.08693 0.179597,2.6236 -1.027428,2.81069 0,0 -0.581499,0.0807 -0.581499,0.0807 0,0 0.154116,0.7897 0.154116,0.7897 0,0 6.657122,-0.0505 6.657122,-0.0505 0,0 -0.13341,-0.7874 -0.13341,-0.7874 0,0 -0.609324,-0.0719 -0.609324,-0.0719 -1.271951,-0.16903 -1.677186,-0.70072 -2.047682,-2.78548 0,0 -1.775667,-9.99157 -1.775667,-9.99157 -0.370495,-2.08476 -0.13645,-2.6188 1.148722,-2.79721 0,0 0.620062,-0.0764 0.620062,-0.0764 0,0 -0.13341,-0.7874 -0.13341,-0.7874 0,0 -7.111999,0 -7.111999,0 0,0 0.154116,0.7897 0.154116,0.7897 0,0 0.647887,0.0762 0.647887,0.0762 1.350096,0.17771 1.778917,0.71202 2.168974,2.79895 0,0 0.708762,3.79211 0.708762,3.79211 0,0 -8.842969,0.0278 -8.842969,0.0278 z"
       inkscape:path-effect="#path-effect1648"
       inkscape:original-d="m 54.402202,234.84402 v -3.7846 c 0,-2.0828 0.3302,-2.6162 1.651,-2.794 l 0.635,-0.0762 v -0.7874 h -7.112 v 0.7874 l 0.635,0.0762 c 1.3208,0.1778 1.651,0.7112 1.651,2.794 v 9.9822 c 0,2.0828 -0.3302,2.6162 -1.651,2.794 l -0.635,0.0762 v 0.7874 h 7.112 v -0.7874 l -0.635,-0.0762 c -1.3208,-0.1778 -1.651,-0.7112 -1.651,-2.794 v -5.1054 h 9.093199 v 5.1054 c 0,2.0828 -0.3302,2.6162 -1.650999,2.794 l -0.635,0.0762 v 0.7874 h 7.111999 v -0.7874 l -0.635,-0.0762 c -1.3208,-0.1778 -1.651,-0.7112 -1.651,-2.794 v -9.9822 c 0,-2.0828 0.3302,-2.6162 1.651,-2.794 l 0.635,-0.0762 v -0.7874 h -7.111999 v 0.7874 l 0.635,0.0762 c 1.320799,0.1778 1.650999,0.7112 1.650999,2.794 v 3.7846 z" />
    <path
       inkscape:connector-curvature="0"
       id="path1597"
       style="font-style:normal;font-variant:normal;font-weight:normal;font-stretch:normal;font-size:25.39999962px;line-height:1.25;font-family:'URW Bookman L';-inkscape-font-specification:'URW Bookman L, Normal';font-variant-ligatures:normal;font-variant-caps:normal;font-variant-numeric:normal;font-feature-settings:normal;text-align:start;letter-spacing:0px;word-spacing:0px;writing-mode:lr-tb;text-anchor:start;fill:#000000;fill-opacity:1;stroke:none;stroke-width:0.26458332"
       d="m 84.419447,227.40182 c 0,0 -14.5034,0 -14.5034,0 0,0 0.139474,0.81772 0.139474,0.81772 0,0 0.645537,0.0786 0.645537,0.0786 1.344259,0.18331 1.760503,0.73584 2.10373,2.89456 0,0 1.644982,10.34605 1.644982,10.34605 0.343228,2.15872 0.129904,2.71639 -1.044105,2.92026 0,0 -0.565169,0.0885 -0.565169,0.0885 0,0 0.139474,0.81772 0.139474,0.81772 0,0 13.425462,-0.23046 13.425462,-0.23046 0,0 1.637242,-5.57117 1.637242,-5.57117 0,0 -0.768508,-0.35564 -0.768508,-0.35564 -2.226742,3.67826 -4.011206,4.85562 -7.464727,4.9108 -1.1589,0.0185 -1.98058,-0.20515 -2.42398,-0.69825 -0.255361,-0.312 -0.410029,-0.7309 -0.532827,-1.57147 0,0 -0.809697,-5.5425 -0.809697,-5.5425 0,0 1.792231,-0.0146 1.792231,-0.0146 1.913328,-0.0155 2.848301,0.89334 3.3855,3.34959 0,0 0.808182,-0.009 0.808182,-0.009 0,0 -0.90684,-7.81397 -0.90684,-7.81397 0,0 -0.843588,0.003 -0.843588,0.003 -0.01455,2.72218 -0.477069,3.32767 -2.548443,3.34228 0,0 -1.852052,0.0131 -1.852052,0.0131 0,0 -0.652362,-4.46553 -0.652362,-4.46553 -0.245596,-1.68114 0.338,-2.18087 2.560021,-2.18307 3.434033,-0.003 5.455729,0.98569 8.033318,3.89618 0,0 0.761778,-0.34167 0.761778,-0.34167 0,0 -2.161233,-4.68118 -2.161233,-4.68118 z"
       inkscape:path-effect="#path-effect1650"
       inkscape:original-d="m 84.419447,227.40182 h -14.5034 v 0.7874 l 0.635,0.0762 c 1.3208,0.1778 1.651,0.7112 1.651,2.794 v 9.9822 c 0,2.0828 -0.3302,2.6162 -1.651,2.794 l -0.635,0.0762 v 0.7874 h 14.8082 l 2.3114,-5.4102 -0.7874,-0.3556 c -2.7686,3.556 -4.8514,4.6736 -8.636,4.6736 -1.27,0 -2.1336,-0.2286 -2.54,-0.7112 -0.2286,-0.3048 -0.3302,-0.7112 -0.3302,-1.524 v -5.3594 h 1.8796 c 2.0066,0 2.8702,0.889 3.1242,3.2766 h 0.8636 v -7.5946 h -0.8636 c -0.3556,2.6416 -0.9144,3.2258 -3.0734,3.2258 h -1.9304 v -4.318 c 0,-1.6256 0.6604,-2.1082 2.8956,-2.1082 3.4544,0 5.3848,0.9652 7.7216,3.81 l 0.8128,-0.3302 z" />
    <path
       inkscape:connector-curvature="0"
       id="path1599"
       style="font-style:normal;font-variant:normal;font-weight:normal;font-stretch:normal;font-size:25.39999962px;line-height:1.25;font-family:'URW Bookman L';-inkscape-font-specification:'URW Bookman L, Normal';font-variant-ligatures:normal;font-variant-caps:normal;font-variant-numeric:normal;font-feature-settings:normal;text-align:start;letter-spacing:0px;word-spacing:0px;writing-mode:lr-tb;text-anchor:start;fill:#000000;fill-opacity:1;stroke:none;stroke-width:0.26458332"
       d="m 101.8604,236.81062 c 1.47065,-0.23448 2.13054,-0.51684 2.9024,-1.21031 0.9446,-0.82948 1.4575,-2.06026 1.43843,-3.44308 -0.0403,-2.92464 -2.26327,-4.75541 -5.91078,-4.75541 0,0 -10.37683,0 -10.37683,0 0,0 0.101454,0.885 0.101454,0.885 0,0 0.64616,0.0848 0.64616,0.0848 1.342792,0.1975 1.73207,0.78861 1.959542,3.05609 0,0 1.005952,10.02751 1.005952,10.02751 0.193887,1.93269 -0.0554,2.42178 -1.230809,2.59256 0,0 -0.565596,0.0736 -0.565596,0.0736 0,0 0.08151,0.71099 0.08151,0.71099 0,0 6.620779,-0.0536 6.620779,-0.0536 0,0 -0.04853,-0.70906 -0.04853,-0.70906 0,0 -0.826031,-0.0626 -0.826031,-0.0626 -1.174071,-0.10621 -1.541171,-0.65948 -1.702258,-2.56707 0,0 -0.367201,-4.34839 -0.367201,-4.34839 0,0 3.444487,-0.0155 3.444487,-0.0155 0,0 5.561079,7.65358 5.561079,7.65358 0,0 3.75986,-0.0305 3.75986,-0.0305 0,0 0,-0.70619 0,-0.70619 -1.10883,-0.19781 -1.7247,-0.56164 -2.44459,-1.48622 0,0 -4.04902,-5.69619 -4.04902,-5.69619 z m -6.364331,-0.81454 c 0,0 -0.488113,-5.78022 -0.488113,-5.78022 -0.05156,-0.61061 0.119443,-0.97382 0.555042,-1.19837 0.484984,-0.25327 1.758808,-0.45121 3.046299,-0.45191 3.224563,-0.002 4.871823,1.25265 4.947243,3.70492 0.036,1.17147 -0.39124,2.22279 -1.16359,2.90059 -0.65054,0.56928 -1.50463,0.80342 -2.850155,0.8088 0,0 -4.046726,0.0162 -4.046726,0.0162 z"
       inkscape:path-effect="#path-effect1652"
       inkscape:original-d="m 101.41981,236.29182 c 1.5748,-0.2286 2.286,-0.508 3.1242,-1.1938 1.016,-0.8128 1.5748,-2.0066 1.5748,-3.3274 0,-2.7178 -2.2098,-4.3688 -5.8674,-4.3688 H 89.91362 v 0.7874 l 0.635,0.0762 c 1.3208,0.1778 1.651,0.7112 1.651,2.794 v 9.9822 c 0,2.0828 -0.3302,2.6162 -1.651,2.794 l -0.635,0.0762 v 0.7874 h 7.391398 v -0.7874 l -0.9144,-0.0762 c -1.2954,-0.127 -1.651,-0.7366 -1.651,-2.794 v -4.4958 h 3.657595 l 5.714997,8.1534 h 4.2418 v -0.7874 c -1.2446,-0.2286 -1.9304,-0.635 -2.7178,-1.651 z m -6.680192,-0.8382 v -5.5118 c 0,-0.5588 0.2032,-0.889 0.6604,-1.0922 0.508,-0.2286 1.8034,-0.4064 3.098795,-0.4064 3.251197,0 4.876797,1.143 4.876797,3.429 0,1.1176 -0.4826,2.1336 -1.3208,2.794 -0.7112,0.5588 -1.6256,0.7874 -3.048002,0.7874 z" />
    <path
       inkscape:connector-curvature="0"
       id="path1601"
       style="font-style:normal;font-variant:normal;font-weight:normal;font-stretch:normal;font-size:25.39999962px;line-height:1.25;font-family:'URW Bookman L';-inkscape-font-specification:'URW Bookman L, Normal';font-variant-ligatures:normal;font-variant-caps:normal;font-variant-numeric:normal;font-feature-settings:normal;text-align:start;letter-spacing:0px;word-spacing:0px;writing-mode:lr-tb;text-anchor:start;fill:#000000;fill-opacity:1;stroke:none;stroke-width:0.26458332"
       d="m 117.31267,227.40182 h -2.3622 l -4.3688,11.2014 c -1.7018,4.3434 -2.1082,4.9276 -3.81,5.2578 l -0.2794,0.0508 v 0.7874 h 6.8072 v -0.7874 c -0.9144,-0.127 -1.3462,-0.2286 -1.6256,-0.4064 -0.381,-0.254 -0.635,-0.7112 -0.635,-1.1684 0,-0.381 0.1778,-1.0922 0.4826,-1.8796 l 0.8128,-2.1844 h 6.5532 l 1.27,3.2766 c 0.1524,0.4318 0.2794,0.889 0.2794,1.0922 0,0.3556 -0.2032,0.6858 -0.5334,0.889 -0.2286,0.1778 -0.5842,0.254 -1.4732,0.381 v 0.7874 h 7.1374 v -0.7874 c -1.651,-0.254 -1.9558,-0.5334 -2.8702,-2.8956 z m -4.5974,9.779 2.8194,-7.62 2.8956,7.62 z" />
    <path
       inkscape:connector-curvature="0"
       id="path1603"
       style="font-style:normal;font-variant:normal;font-weight:normal;font-stretch:normal;font-size:25.39999962px;line-height:1.25;font-family:'URW Bookman L';-inkscape-font-specification:'URW Bookman L, Normal';font-variant-ligatures:normal;font-variant-caps:normal;font-variant-numeric:normal;font-feature-settings:normal;text-align:start;letter-spacing:0px;word-spacing:0px;writing-mode:lr-tb;text-anchor:start;fill:#000000;fill-opacity:1;stroke:none;stroke-width:0.26458332"
       d="m 125.48354,227.40182 c 0,0 0,0.92549 0,0.92549 0,0 0.62918,0.0887 0.62918,0.0887 1.30504,0.20651 1.6189,0.8214 1.57063,3.15763 0,0 -0.20523,9.93422 -0.20523,9.93422 -0.0381,1.84352 -0.32884,2.30437 -1.45463,2.45699 0,0 -0.53995,0.0653 -0.53995,0.0653 0,0 0,0.66907 0,0.66907 0,0 7.82173,0 7.82173,0 2.37866,0 3.90034,-0.34413 5.10748,-1.14975 1.10552,-0.73029 1.93793,-2.01866 2.14545,-3.36591 0.20966,-1.36117 -0.24725,-2.58674 -1.25168,-3.33672 -0.6346,-0.48081 -1.14294,-0.71016 -2.36895,-1.04327 1.23533,-0.30943 1.76305,-0.56872 2.42327,-1.09126 0.82128,-0.60752 1.3672,-1.5729 1.52213,-2.63917 0.2033,-1.39913 -0.29544,-2.77749 -1.32099,-3.53899 -1.0618,-0.80215 -2.52144,-1.13233 -5.13764,-1.13233 0,0 -8.9408,0 -8.9408,0 z m 4.47532,8.04056 c 0,0 0.19317,-4.42922 0.19317,-4.42922 0.0902,-2.06765 0.6095,-2.44952 3.49983,-2.44952 3.4684,0 5.03176,1.19538 4.7396,3.59229 -0.28916,2.37223 -1.93162,3.28645 -5.70031,3.28645 0,0 -2.73229,0 -2.73229,0 z m -0.048,1.10132 c 0,0 2.74958,0 2.74958,0 2.19034,0 3.4121,0.12653 4.0302,0.42891 1.04977,0.52485 1.52815,1.6557 1.34405,3.09305 -0.14941,1.16642 -0.74821,2.23781 -1.58462,2.82037 -0.89845,0.64148 -2.1835,0.92624 -4.04393,0.92624 -1.34125,0 -2.23789,-0.24084 -2.52005,-0.70406 -0.18335,-0.28903 -0.23037,-0.71465 -0.18172,-1.83005 0,0 0.20649,-4.73446 0.20649,-4.73446 z"
       inkscape:path-effect="#path-effect1654"
       inkscape:original-d="m 125.48354,227.40182 v 0.7874 l 0.635,0.0762 c 1.3208,0.1778 1.651,0.7112 1.651,2.794 v 9.9822 c 0,2.0828 -0.3302,2.6162 -1.651,2.794 l -0.635,0.0762 v 0.7874 h 9.271 c 2.8194,0 4.572,-0.4064 5.8674,-1.3462 1.1684,-0.8382 1.905,-2.286 1.905,-3.7592 0,-1.4478 -0.7112,-2.7178 -1.9304,-3.4798 -0.762,-0.4826 -1.3462,-0.7112 -2.7178,-1.0414 1.2954,-0.3048 1.8288,-0.5588 2.4638,-1.0668 0.7874,-0.5842 1.2192,-1.4986 1.2192,-2.4892 0,-1.27 -0.7112,-2.4892 -1.8542,-3.1496 -1.1684,-0.6858 -2.667,-0.9652 -5.2832,-0.9652 z m 4.826,7.3152 v -4.1656 c 0,-1.8288 0.508,-2.159 3.429,-2.159 3.5052,0 5.2324,1.0414 5.2324,3.2004 0,2.2352 -1.651,3.1242 -5.715,3.1242 z m 0,1.0922 h 2.9972 c 2.3876,0 3.7338,0.127 4.445,0.4318 1.2192,0.5334 1.905,1.7018 1.905,3.2258 0,1.27 -0.5334,2.4638 -1.4224,3.1242 -0.9652,0.7366 -2.4384,1.0668 -4.6228,1.0668 -1.5748,0 -2.6416,-0.2794 -2.9972,-0.8128 -0.2286,-0.3302 -0.3048,-0.8128 -0.3048,-2.0574 z" />
    <path
       inkscape:connector-curvature="0"
       id="path1605"
       style="font-style:normal;font-variant:normal;font-weight:normal;font-stretch:normal;font-size:25.39999962px;line-height:1.25;font-family:'URW Bookman L';-inkscape-font-specification:'URW Bookman L, Normal';font-variant-ligatures:normal;font-variant-caps:normal;font-variant-numeric:normal;font-feature-settings:normal;text-align:start;letter-spacing:0px;word-spacing:0px;writing-mode:lr-tb;text-anchor:start;fill:#000000;fill-opacity:1;stroke:none;stroke-width:0.26458332"
       d="m 144.28548,227.40182 c 0,0 -0.097,0.78134 -0.097,0.78134 0,0 0.62263,0.0754 0.62263,0.0754 1.29082,0.17576 1.54682,0.70435 1.26435,2.76895 0,0 -1.35376,9.89502 -1.35376,9.89502 -0.28246,2.06461 -0.65589,2.59577 -1.88279,2.78186 0,0 -0.58781,0.0803 -0.58781,0.0803 0,0 -0.097,0.78134 -0.097,0.78134 0,0 8.40144,-0.0725 8.40144,-0.0725 2.55495,-0.022 4.22375,-0.43646 5.59345,-1.37248 1.24475,-0.83399 2.23318,-2.26452 2.55086,-3.71503 0.3122,-1.4255 -0.0886,-2.6729 -1.08882,-3.4186 -0.62898,-0.47276 -1.14188,-0.696 -2.39109,-1.01685 1.3017,-0.30506 1.86469,-0.55724 2.57872,-1.05996 0.88076,-0.57792 1.49086,-1.47981 1.69929,-2.45559 0.26721,-1.25099 -0.1812,-2.45142 -1.18181,-3.10165 -1.02923,-0.67596 -2.47362,-0.95156 -5.08982,-0.95156 0,0 -8.9408,0 -8.9408,0 z m 3.73318,7.24291 c 0,0 0.6223,-4.12443 0.6223,-4.12443 0.2732,-1.81073 0.8278,-2.1379 3.73311,-2.1392 3.48638,-0.002 4.99981,1.02469 4.57588,3.1539 -0.4389,2.20436 -2.19897,3.08656 -6.10177,3.09999 0,0 -2.82952,0.01 -2.82952,0.01 z m -0.16317,1.08141 c 0,0 2.86056,-0.0114 2.86056,-0.0114 2.27876,-0.009 3.53998,0.11117 4.16043,0.40919 1.05603,0.52118 1.47321,1.67019 1.16829,3.17269 -0.25409,1.25209 -0.98432,2.43255 -1.93032,3.0899 -1.02354,0.73363 -2.42868,1.07035 -4.42053,1.08639 -1.43598,0.0116 -2.36601,-0.25715 -2.61023,-0.78264 -0.16,-0.32533 -0.15786,-0.80264 0.0281,-2.03494 0,0 0.74372,-4.9292 0.74372,-4.9292 z"
       inkscape:path-effect="#path-effect1656"
       inkscape:original-d="m 144.28548,227.40182 v 0.7874 l 0.635,0.0762 c 1.3208,0.1778 1.651,0.7112 1.651,2.794 v 9.9822 c 0,2.0828 -0.3302,2.6162 -1.651,2.794 l -0.635,0.0762 v 0.7874 h 9.271 c 2.8194,0 4.572,-0.4064 5.8674,-1.3462 1.1684,-0.8382 1.905,-2.286 1.905,-3.7592 0,-1.4478 -0.7112,-2.7178 -1.9304,-3.4798 -0.762,-0.4826 -1.3462,-0.7112 -2.7178,-1.0414 1.2954,-0.3048 1.8288,-0.5588 2.4638,-1.0668 0.7874,-0.5842 1.2192,-1.4986 1.2192,-2.4892 0,-1.27 -0.7112,-2.4892 -1.8542,-3.1496 -1.1684,-0.6858 -2.667,-0.9652 -5.2832,-0.9652 z m 4.826,7.3152 v -4.1656 c 0,-1.8288 0.508,-2.159 3.429,-2.159 3.5052,0 5.2324,1.0414 5.2324,3.2004 0,2.2352 -1.651,3.1242 -5.715,3.1242 z m 0,1.0922 h 2.9972 c 2.3876,0 3.7338,0.127 4.445,0.4318 1.2192,0.5334 1.905,1.7018 1.905,3.2258 0,1.27 -0.5334,2.4638 -1.4224,3.1242 -0.9652,0.7366 -2.4384,1.0668 -4.6228,1.0668 -1.5748,0 -2.6416,-0.2794 -2.9972,-0.8128 -0.2286,-0.3302 -0.3048,-0.8128 -0.3048,-2.0574 z" />
    <path
       inkscape:connector-curvature="0"
       id="path1607"
       style="font-style:normal;font-variant:normal;font-weight:normal;font-stretch:normal;font-size:25.39999962px;line-height:1.25;font-family:'URW Bookman L';-inkscape-font-specification:'URW Bookman L, Normal';font-variant-ligatures:normal;font-variant-caps:normal;font-variant-numeric:normal;font-feature-settings:normal;text-align:start;letter-spacing:0px;word-spacing:0px;writing-mode:lr-tb;text-anchor:start;fill:#000000;fill-opacity:1;stroke:none;stroke-width:0.26458332"
       d="m 165.07202,231.27263 c 0.50867,-2.16372 0.8983,-2.63724 2.3217,-2.87459 0,0 0.52564,-0.0792 0.52564,-0.0792 0,0 0.19906,-0.82093 0.19906,-0.82093 0,0 -6.858,0 -6.858,0 0,0 -0.17979,0.82093 -0.17979,0.82093 0,0 0.48909,0.0792 0.48909,0.0792 1.31386,0.23735 1.48497,0.71087 0.99511,2.87459 0,0 -2.22382,9.82254 -2.22382,9.82254 -0.45043,1.98954 -0.81136,2.41726 -2.1549,2.63063 0,0 -0.49536,0.071 -0.49536,0.071 0,0 -0.16032,0.73204 -0.16032,0.73204 0,0 6.45836,0 6.45836,0 0,0 0.1775,-0.73204 0.1775,-0.73204 0,0 -0.46256,-0.071 -0.46256,-0.071 -1.24508,-0.21337 -1.40862,-0.64109 -0.94089,-2.63063 0,0 2.30918,-9.82254 2.30918,-9.82254 z"
       inkscape:path-effect="#path-effect1658"
       inkscape:original-d="m 165.95942,231.15551 c 0,-2.1082 0.2794,-2.5654 1.651,-2.794 l 0.508,-0.0762 v -0.7874 h -6.858 v 0.7874 l 0.508,0.0762 c 1.3716,0.2286 1.651,0.6858 1.651,2.794 v 9.9822 c 0,2.1082 -0.2794,2.5654 -1.651,2.794 l -0.508,0.0762 v 0.7874 h 6.858 v -0.7874 l -0.508,-0.0762 c -1.3716,-0.2286 -1.651,-0.6858 -1.651,-2.794 z" />
    <path
       inkscape:connector-curvature="0"
       id="path1609"
       style="font-style:normal;font-variant:normal;font-weight:normal;font-stretch:normal;font-size:25.39999962px;line-height:1.25;font-family:'URW Bookman L';-inkscape-font-specification:'URW Bookman L, Normal';font-variant-ligatures:normal;font-variant-caps:normal;font-variant-numeric:normal;font-feature-settings:normal;text-align:start;letter-spacing:0px;word-spacing:0px;writing-mode:lr-tb;text-anchor:start;fill:#000000;fill-opacity:1;stroke:none;stroke-width:0.28609607"
       d="m 181.2741,227.64672 c 0,0 -12.01066,-0.22299 -12.01066,-0.22299 0,0 -2.30749,4.41406 -2.30749,4.41406 0,0 0.58605,0.31164 0.58605,0.31164 1.88277,-2.59943 3.61153,-3.7314 5.50513,-3.698 0.67922,0.012 0.83178,0.26634 0.61025,1.01744 0,0 -3.38941,11.49185 -3.38941,11.49185 -0.59814,2.02798 -1.06153,2.65357 -2.0195,2.75279 0,0 -0.74546,0.0745 -0.74546,0.0745 0,0 -0.21828,0.77796 -0.21828,0.77796 0,0 5.68582,0 5.68582,0 0,0 0.24979,-0.77257 0.24979,-0.77257 0,0 -0.70016,-0.0755 -0.70016,-0.0755 -0.89758,-0.10085 -0.98351,-0.72568 -0.35864,-2.74908 0,0 3.51005,-11.36602 3.51005,-11.36602 0.27,-0.87431 0.5041,-1.09623 1.18332,-1.08425 1.81127,0.032 2.93922,1.35249 3.2418,3.8048 0,0 0.80737,-0.28801 0.80737,-0.28801 0,0 0.37002,-4.38865 0.37002,-4.38865 z"
       inkscape:path-effect="#path-effect1660"
       inkscape:original-d="m 187.00094,227.40182 h -17.22505 l -1.69281,4.4704 0.98005,0.3048 c 1.7522,-2.6416 3.80139,-3.81 6.53364,-3.81 0.98004,0 1.30672,0.254 1.30672,1.016 v 11.6586 c 0,2.0574 -0.44547,2.6924 -1.93039,2.794 l -1.15824,0.0762 v 0.7874 h 9.1471 v -0.7874 l -1.15824,-0.0762 c -1.48491,-0.1016 -1.93039,-0.7366 -1.93039,-2.794 v -11.557 c 0,-0.889 0.23759,-1.1176 1.21763,-1.1176 2.61346,0 4.87054,1.3208 6.53364,3.81 l 1.03945,-0.3048 z" />
    <path
       inkscape:connector-curvature="0"
       id="path1584"
       style="font-style:normal;font-variant:normal;font-weight:normal;font-stretch:normal;font-size:40.21666718px;line-height:1.25;font-family:'URW Bookman L';-inkscape-font-specification:'URW Bookman L, Normal';font-variant-ligatures:normal;font-variant-caps:normal;font-variant-numeric:normal;font-feature-settings:normal;text-align:start;letter-spacing:0px;word-spacing:0px;writing-mode:lr-tb;text-anchor:start;fill:#000000;fill-opacity:1;stroke:none;stroke-width:0.26458332"
       d="m 54.017303,265.77988 c 0,0 -1.821788,-5.83905 -1.821788,-5.83905 -1.002592,-3.21343 -0.663762,-4.03418 1.636997,-4.29955 0,0 1.112582,-0.11321 1.112582,-0.11321 0,0 -0.354626,-1.2141 -0.354626,-1.2141 0,0 -12.92855,-0.0505 -12.92855,-0.0505 0,0 0.43055,1.2164 0.43055,1.2164 0,0 1.188567,0.122 1.188567,0.122 2.478058,0.28345 3.348781,1.10917 4.423098,4.32477 0,0 5.148872,15.41139 5.148872,15.41139 1.07432,3.21561 0.821971,4.03898 -1.192252,4.31304 0,0 -0.971186,0.11749 -0.971186,0.11749 0,0 0.430547,1.21639 0.430547,1.21639 0,0 11.260667,0 11.260667,0 0,0 -0.354623,-1.21409 -0.354623,-1.21409 0,0 -1.047171,-0.11772 -1.047171,-0.11772 -2.191524,-0.27476 -2.975764,-1.09786 -3.978358,-4.3113 0,0 -2.457577,-7.87683 -2.457577,-7.87683 0,0 15.477912,0.0327 15.477912,0.0327 0,0 1.828158,7.85776 1.828158,7.85776 0.745817,3.20566 0.40934,4.02647 -1.632928,4.29969 0,0 -0.983203,0.11712 -0.983203,0.11712 0,0 0.306357,1.21263 0.306357,1.21263 0,0 11.260666,0 11.260666,0 0,0 -0.230434,-1.21033 -0.230434,-1.21033 0,0 -1.035151,-0.11735 -1.035151,-0.11735 -2.16348,-0.27392 -2.863592,-1.09446 -3.537683,-4.29794 0,0 -3.230702,-15.35327 -3.230702,-15.35327 -0.674089,-3.20347 -0.251129,-4.02167 2.077674,-4.2862 0,0 1.124598,-0.11284 1.124598,-0.11284 0,0 -0.230435,-1.21034 -0.230435,-1.21034 0,0 -12.928549,-0.0505 -12.928549,-0.0505 0,0 0.30636,1.21264 0.30636,1.21264 0,0 1.176547,0.12163 1.176547,0.12163 2.450016,0.2826 3.23661,1.10577 3.982424,4.31142 0,0 1.355204,5.82491 1.355204,5.82491 0,0 -15.612564,-0.0368 -15.612564,-0.0368 z"
       inkscape:path-effect="#path-effect1662"
       inkscape:original-d="m 58.761281,265.38085 v -5.99229 c 0,-3.29776 0.522816,-4.14231 2.614083,-4.42383 l 1.005417,-0.12065 v -1.24672 H 51.120114 v 1.24672 l 1.005417,0.12065 c 2.091266,0.28152 2.614083,1.12607 2.614083,4.42383 v 15.80515 c 0,3.29777 -0.522817,4.14232 -2.614083,4.42384 l -1.005417,0.12065 v 1.24671 h 11.260667 v -1.24671 l -1.005417,-0.12065 c -2.091267,-0.28152 -2.614083,-1.12607 -2.614083,-4.42384 v -8.08355 h 14.397567 v 8.08355 c 0,3.29777 -0.522817,4.14232 -2.614084,4.42384 l -1.005416,0.12065 v 1.24671 h 11.260666 v -1.24671 l -1.005416,-0.12065 c -2.091267,-0.28152 -2.614084,-1.12607 -2.614084,-4.42384 v -15.80515 c 0,-3.29776 0.522817,-4.14231 2.614084,-4.42383 l 1.005416,-0.12065 v -1.24672 H 69.539348 v 1.24672 l 1.005416,0.12065 c 2.091267,0.28152 2.614084,1.12607 2.614084,4.42383 v 5.99229 z" />
    <path
       inkscape:connector-curvature="0"
       id="path1586"
       style="font-style:normal;font-variant:normal;font-weight:normal;font-stretch:normal;font-size:40.21666718px;line-height:1.25;font-family:'URW Bookman L';-inkscape-font-specification:'URW Bookman L, Normal';font-variant-ligatures:normal;font-variant-caps:normal;font-variant-numeric:normal;font-feature-settings:normal;text-align:start;letter-spacing:0px;word-spacing:0px;writing-mode:lr-tb;text-anchor:start;fill:#000000;fill-opacity:1;stroke:none;stroke-width:0.26458332"
       d="m 95.843104,253.47653 c -9.284408,0.22322 -15.413514,7.17681 -14.110447,15.12705 1.236804,7.54595 8.189828,12.90415 16.255717,12.90415 4.439666,0 8.774586,-1.73874 11.451166,-4.64084 2.05297,-2.22082 3.12284,-5.11193 3.12284,-8.40877 0,-8.60541 -7.09531,-15.21298 -16.719276,-14.98159 z m 0.08758,2.18593 c 6.763969,-0.14994 14.161029,4.70524 14.262069,12.73414 0.087,6.91802 -6.38675,11.4468 -12.301498,11.45519 -5.895628,0.008 -12.813263,-4.42877 -13.879851,-11.46363 -1.133484,-7.47609 5.278434,-12.5785 11.91928,-12.7257 z"
       inkscape:path-effect="#path-effect1664"
       inkscape:original-d="m 98.325683,253.07455 c -8.083548,0 -14.477998,6.23358 -14.477998,14.11605 0,8.12376 6.193366,14.31713 14.317128,14.31713 4.423827,0 8.767227,-2.01083 11.421527,-5.26838 1.97062,-2.413 2.97604,-5.46947 2.97604,-8.84767 0,-8.28463 -5.99229,-14.31713 -14.236697,-14.31713 z m -0.0804,1.9304 c 5.871637,0 12.161967,4.53652 12.161967,12.29834 0,7.239 -6.37077,12.27404 -12.202177,12.27404 -5.871632,0 -12.155089,-5.06149 -12.155089,-12.58201 0,-7.39986 6.363891,-11.99037 12.195299,-11.99037 z"
       sodipodi:nodetypes="ssscsssssss" />
    <path
       inkscape:connector-curvature="0"
       id="path1588"
       style="font-style:normal;font-variant:normal;font-weight:normal;font-stretch:normal;font-size:40.21666718px;line-height:1.25;font-family:'URW Bookman L';-inkscape-font-specification:'URW Bookman L, Normal';font-variant-ligatures:normal;font-variant-caps:normal;font-variant-numeric:normal;font-feature-settings:normal;text-align:start;letter-spacing:0px;word-spacing:0px;writing-mode:lr-tb;text-anchor:start;fill:#000000;fill-opacity:1;stroke:none;stroke-width:0.26458332"
       d="m 137.11266,272.2872 c 0,0 -0.94513,-0.51612 -0.94513,-0.51612 -1.96633,2.60977 -2.98056,3.73552 -4.47841,4.90441 -2.15543,1.73439 -4.52033,2.71031 -6.62713,2.72314 -1.13974,0.007 -2.12243,-0.38843 -2.51118,-0.9882 -0.26093,-0.39991 -0.36676,-1.20221 -0.31641,-2.40685 0,0 0.69473,-16.62397 0.69473,-16.62397 0.13593,-3.25252 0.73441,-4.2164 2.77916,-4.41772 0,0 1.28493,-0.12072 1.28493,-0.12072 0,0 0.0786,-1.24381 0.0786,-1.24381 0,0 -11.54219,0 -11.54219,0 0,0 0,1.24672 0,1.24672 0,0 0.99791,0.12037 0.99791,0.12037 2.0709,0.28077 2.57231,1.12452 2.50713,4.41987 0,0 -0.3124,15.79358 -0.3124,15.79358 -0.0652,3.29536 -0.5312,4.14201 -2.33008,4.43436 0,0 -0.86256,0.12594 -0.86256,0.12594 0,0 0,1.24671 0,1.24671 0,0 17.71663,-0.11539 17.71663,-0.11539 0,0 3.86642,-8.58232 3.86642,-8.58232 z"
       inkscape:path-effect="#path-effect1666"
       inkscape:original-d="m 139.57918,272.37855 -1.12607,-0.52282 c -1.84996,2.61408 -2.85538,3.74015 -4.42383,4.90643 -2.29235,1.72932 -4.94665,2.69452 -7.39987,2.69452 -1.32715,0 -2.49343,-0.40217 -2.97603,-1.00542 -0.32173,-0.40216 -0.4826,-1.2065 -0.4826,-2.413 v -16.6497 c 0,-3.25755 0.56303,-4.22275 2.61408,-4.42383 l 1.28694,-0.12065 v -1.24672 h -11.54219 v 1.24672 l 1.00542,0.12065 c 2.09127,0.28152 2.61408,1.12607 2.61408,4.42383 v 15.80515 c 0,3.29777 -0.52281,4.14232 -2.61408,4.42384 l -1.00542,0.12065 v 1.24671 h 20.83224 z" />
    <path
       inkscape:connector-curvature="0"
       id="path1590"
       style="font-style:normal;font-variant:normal;font-weight:normal;font-stretch:normal;font-size:40.21666718px;line-height:1.25;font-family:'URW Bookman L';-inkscape-font-specification:'URW Bookman L, Normal';font-variant-ligatures:normal;font-variant-caps:normal;font-variant-numeric:normal;font-feature-settings:normal;text-align:start;letter-spacing:0px;word-spacing:0px;writing-mode:lr-tb;text-anchor:start;fill:#000000;fill-opacity:1;stroke:none;stroke-width:0.26458332"
       d="m 169.67152,253.75093 c 0,0 -25.89799,0.11286 -25.89799,0.11286 0,0 -0.18799,1.23459 -0.18799,1.23459 0,0 1.10929,0.11478 1.10929,0.11478 2.29863,0.26918 2.74261,1.10364 2.18967,4.37146 0,0 -2.65008,15.66167 -2.65008,15.66167 -0.55294,3.26783 -1.22138,4.10486 -3.37251,4.38432 0,0 -1.03002,0.11972 -1.03002,0.11972 0,0 -0.18799,1.23458 -0.18799,1.23458 0,0 23.44632,0 23.44632,0 0,0 6.03469,-8.52449 6.03469,-8.52449 0,0 -1.14373,-0.55824 -1.14373,-0.55824 -5.98343,5.60443 -9.75192,7.3646 -15.79256,7.36646 -2.02705,6.3e-4 -3.33601,-0.35795 -3.84142,-1.11552 -0.27644,-0.47839 -0.31985,-1.11639 -0.0799,-2.39256 0,0 1.58204,-8.41481 1.58204,-8.41481 0,0 3.167,-0.007 3.167,-0.007 3.381,-0.008 4.5243,1.38651 4.1051,5.13976 0,0 1.42202,-0.002 1.42202,-0.002 0,0 2.76304,-11.94434 2.76304,-11.94434 0,0 -1.49873,0.005 -1.49873,0.005 -1.54051,4.15518 -2.69341,5.07612 -6.35876,5.08562 0,0 -3.27727,0.008 -3.27727,0.008 0,0 1.27463,-6.7797 1.27463,-6.7797 0.47986,-2.55235 1.79312,-3.3149 5.75586,-3.3312 6.12422,-0.0252 9.16817,1.4798 12.09162,5.944 0,0 1.54639,-0.52469 1.54639,-0.52469 0,0 -1.1687,-7.18837 -1.1687,-7.18837 z"
       inkscape:path-effect="#path-effect1668"
       inkscape:original-d="M 162.60762,253.59736 H 139.6439 v 1.24672 l 1.00542,0.12065 c 2.09127,0.28152 2.61408,1.12607 2.61408,4.42383 v 15.80515 c 0,3.29777 -0.52281,4.14232 -2.61408,4.42384 l -1.00542,0.12065 v 1.24671 h 23.44632 l 3.65972,-8.56615 -1.24672,-0.56303 c -4.38362,5.63033 -7.68138,7.39987 -13.67367,7.39987 -2.01083,0 -3.3782,-0.36195 -4.02166,-1.12607 -0.36195,-0.4826 -0.52282,-1.12607 -0.52282,-2.413 v -8.48572 h 2.97603 c 3.17712,0 4.54449,1.40759 4.94665,5.18795 h 1.36737 v -12.02478 h -1.36737 c -0.56303,4.18253 -1.4478,5.10752 -4.86621,5.10752 h -3.05647 v -6.83684 c 0,-2.57386 1.04563,-3.33798 4.5847,-3.33798 5.46947,0 8.52593,1.52823 12.22587,6.0325 l 1.28693,-0.52282 z" />
    <path
       inkscape:connector-curvature="0"
       id="path1586-6"
       style="font-style:normal;font-variant:normal;font-weight:normal;font-stretch:normal;font-size:40.21666718px;line-height:1.25;font-family:'URW Bookman L';-inkscape-font-specification:'URW Bookman L, Normal';font-variant-ligatures:normal;font-variant-caps:normal;font-variant-numeric:normal;font-feature-settings:normal;text-align:start;letter-spacing:0px;word-spacing:0px;writing-mode:lr-tb;text-anchor:start;display:inline;fill:#000000;fill-opacity:1;stroke:none;stroke-width:0.20170678"
       d="m 96.028285,257.95435 c -7.450196,0.18178 -10.827299,5.83401 -9.845548,11.91254 0.931992,5.77045 5.093752,9.5958 11.568059,9.5958 3.565984,0 7.049454,-1.33491 9.201114,-3.56348 1.65076,-1.70584 2.51117,-3.92646 2.51117,-6.45836 0,-6.60879 -5.70436,-11.67511 -13.434795,-11.4865 z m 0.249198,0.2002 c 5.487447,-0.1326 12.715247,4.26189 12.734607,10.50144 0.0167,5.37347 -5.12351,10.37274 -9.860561,10.37505 -4.718997,0.002 -11.760945,-4.23448 -12.61622,-9.62868 -0.908808,-5.73185 4.359105,-11.11773 9.742174,-11.24781 z"
       inkscape:path-effect="#path-effect1664-9"
       inkscape:original-d="m 98.689118,257.62656 c -6.117401,0 -9.673411,5.1128 -9.673411,11.16639 0,6.23888 3.40383,10.66974 9.551676,10.66974 3.347837,0 6.634807,-1.54428 8.643507,-4.04601 1.49131,-1.85314 2.25219,-4.20045 2.25219,-6.79484 0,-6.36243 -4.53481,-10.99528 -10.773962,-10.99528 z m 0.18866,0.18037 c 4.443502,0 10.201852,4.06269 10.201852,10.02361 0,5.55941 -4.74994,11.12624 -9.163002,11.12624 -4.443481,0 -10.517421,-4.86372 -10.517421,-10.63934 0,-5.68294 5.06552,-10.51051 9.478571,-10.51051 z"
       sodipodi:nodetypes="ssscsssssss" />
    <path
       inkscape:connector-curvature="0"
       id="path1586-3"
       style="font-style:normal;font-variant:normal;font-weight:normal;font-stretch:normal;font-size:40.21666718px;line-height:1.25;font-family:'URW Bookman L';-inkscape-font-specification:'URW Bookman L, Normal';font-variant-ligatures:normal;font-variant-caps:normal;font-variant-numeric:normal;font-feature-settings:normal;text-align:start;letter-spacing:0px;word-spacing:0px;writing-mode:lr-tb;text-anchor:start;display:inline;fill:#000000;fill-opacity:1;stroke:none;stroke-width:0.21879359"
       d="m 96.347817,256.37903 c -7.826171,0.19668 -12.391818,5.84196 -11.321463,12.6679 1.014741,6.47127 5.87542,11.02803 12.669221,11.02803 3.741175,0 7.394575,-1.48963 9.651055,-3.97721 1.73173,-1.90468 2.63452,-4.38516 2.63452,-7.21482 0,-7.39271 -5.51529,-12.70791 -13.633333,-12.5039 z m -0.446745,0.56336 c 5.743008,-0.14096 13.290148,5.09858 13.322938,11.99446 0.0282,5.93476 -6.5279,10.70451 -11.480804,10.70678 -4.935111,0.002 -11.389595,-4.61023 -12.317249,-10.62341 -0.986727,-6.3961 4.839924,-11.93951 10.475115,-12.07783 z"
       inkscape:path-effect="#path-effect1664-4"
       inkscape:original-d="m 98.846908,256.35496 c -6.53826,0 -11.138911,4.99139 -11.138911,11.65553 0,6.86815 4.057057,12.06446 10.627856,12.06446 3.578157,0 7.091257,-1.70004 9.238157,-4.4541 1.59392,-2.04004 2.40714,-4.62411 2.40714,-7.48018 0,-7.00414 -4.46585,-11.78571 -11.134242,-11.78571 z m -0.407875,0.4773 c 4.749217,0 10.882717,4.791 10.882717,11.35314 0,6.12015 -6.18939,11.38992 -10.906047,11.38992 -4.749182,0 -10.338548,-5.22902 -10.338548,-11.58715 0,-6.25613 5.645224,-11.15591 10.361878,-11.15591 z"
       sodipodi:nodetypes="ssscsssssss" />
    <path
       inkscape:connector-curvature="0"
       id="path1586-6-0"
       style="font-style:normal;font-variant:normal;font-weight:normal;font-stretch:normal;font-size:40.21666718px;line-height:1.25;font-family:'URW Bookman L';-inkscape-font-specification:'URW Bookman L, Normal';font-variant-ligatures:normal;font-variant-caps:normal;font-variant-numeric:normal;font-feature-settings:normal;text-align:start;letter-spacing:0px;word-spacing:0px;writing-mode:lr-tb;text-anchor:start;display:inline;fill:#000000;fill-opacity:1;stroke:none;stroke-width:0.19818452"
       d="m 87.070773,270.47887 c -0.232153,6.2864 4.746813,9.70983 11.089647,9.16828 6.87668,-0.58709 11.63508,-5.01985 11.03939,-11.82316 -0.30622,-3.49713 -2.22054,-6.55374 -4.93342,-8.0966 -1.93793,-1.10518 -4.271004,-1.42921 -6.763644,-1.0152 -5.917144,0.98277 -10.210805,5.77849 -10.431966,11.76669 0,0 -7e-6,-1e-5 -7e-6,-1e-5 z m 1.002972,-0.67865 c 0.135091,-4.29335 2.746398,-8.8244 8.287281,-9.71945 5.390594,-0.87077 11.396664,2.85622 11.767694,7.39958 0.39395,4.82373 -4.3352,11.0698 -10.635669,11.62231 -5.915059,0.51867 -9.560218,-4.82434 -9.419335,-9.3024 0,0 2.9e-5,-4e-5 2.9e-5,-4e-5 z"
       inkscape:path-effect="#path-effect1664-9-6"
       inkscape:original-d="m 105.06808,278.10105 c 4.0266,-4.48436 2.90832,-10.73763 -1.18708,-15.05514 -4.220732,-4.44969 -9.458807,-5.11469 -13.505461,-0.60803 -2.203624,2.45414 -3.322443,5.96505 -2.952133,9.22181 0.272079,2.41487 1.35926,4.6468 3.114427,6.49715 4.304339,4.53781 10.423487,4.5178 14.530247,-0.0558 z m -1.08134,-0.34307 c -2.9248,3.2573 -7.74116,4.58086 -11.773863,0.32941 -3.761073,-3.96507 -4.400646,-11.41735 -1.495869,-14.65233 2.924805,-3.25731 9.325912,-3.68839 13.233272,0.43088 3.84463,4.05319 2.94124,10.65705 0.0365,13.89204 z"
       sodipodi:nodetypes="ssscssscsssc" />
    <path
       inkscape:connector-curvature="0"
       id="path1586-6-0-5"
       style="font-style:normal;font-variant:normal;font-weight:normal;font-stretch:normal;font-size:40.21666718px;line-height:1.25;font-family:'URW Bookman L';-inkscape-font-specification:'URW Bookman L, Normal';font-variant-ligatures:normal;font-variant-caps:normal;font-variant-numeric:normal;font-feature-settings:normal;text-align:start;letter-spacing:0px;word-spacing:0px;writing-mode:lr-tb;text-anchor:start;display:inline;fill:#000000;fill-opacity:1;stroke:none;stroke-width:0.19818452"
       d="m 94.507666,261.19489 c -5.711049,3.30051 -7.05095,9.27616 -4.413825,14.35094 2.940697,5.65905 8.824077,7.57387 15.186619,3.38234 3.35351,-2.20924 5.65426,-5.67249 6.10306,-9.00967 0.32288,-2.37976 -0.30532,-4.64658 -1.73049,-6.60129 -3.31429,-4.54582 -9.53154,-5.3666 -15.145362,-2.12231 0,0 -2e-6,-1e-5 -2e-6,-1e-5 z m 0.975929,0.45096 c 4.024192,-2.33899 9.316135,-2.77256 12.356005,1.47567 3.03696,4.24416 1.73022,11.78476 -2.64221,14.64732 -4.53694,2.97028 -12.136765,2.07794 -14.844832,-3.08156 -2.4769,-4.71915 1.026824,-10.65594 5.13099,-13.04143 0,0 4.7e-5,0 4.7e-5,0 z"
       inkscape:path-effect="#path-effect1664-9-6-7"
       inkscape:original-d="m 101.68154,280.9437 c 5.76597,-1.754 8.04455,-7.68376 6.77392,-13.49742 -1.30949,-5.99162 -5.44782,-9.27094 -11.242491,-7.50823 -3.15552,0.9599 -5.929533,3.38542 -7.297741,6.36394 -1.016661,2.20727 -1.241157,4.67973 -0.696598,7.17129 1.335441,6.11029 6.582169,9.2593 12.46291,7.47041 z m -0.74784,-0.85308 c -4.188221,1.27405 -8.994581,-0.0854 -10.24574,-5.81008 -1.166898,-5.33908 2.141717,-12.04718 6.301259,-13.31249 4.188241,-1.27406 9.888941,1.66908 11.101231,7.21581 1.1928,5.45772 -2.99719,10.64144 -7.15671,11.90678 z"
       sodipodi:nodetypes="ssscssscsssc" />
    <path
       inkscape:connector-curvature="0"
       id="path1586-6-0-56"
       style="font-style:normal;font-variant:normal;font-weight:normal;font-stretch:normal;font-size:40.21666718px;line-height:1.25;font-family:'URW Bookman L';-inkscape-font-specification:'URW Bookman L, Normal';font-variant-ligatures:normal;font-variant-caps:normal;font-variant-numeric:normal;font-feature-settings:normal;text-align:start;letter-spacing:0px;word-spacing:0px;writing-mode:lr-tb;text-anchor:start;display:inline;fill:#000000;fill-opacity:1;stroke:none;stroke-width:0.17478988"
       d="m 110.86744,272.52975 c 1.02129,-5.77373 -3.80563,-9.80717 -9.84985,-10.37538 -5.810042,-0.54622 -9.910367,2.10322 -10.272878,7.32544 -0.189449,2.72927 0.866332,5.55677 2.772738,7.50802 1.422032,1.45839 3.329249,2.44214 5.555062,2.88836 5.719918,1.14669 10.813738,-1.79971 11.794918,-7.34646 0,0 1e-5,2e-5 1e-5,2e-5 z m -1.17519,0.34798 c -0.67419,3.94273 -3.96713,7.24656 -9.41979,6.18729 -4.787512,-0.93004 -9.045106,-5.51963 -8.781836,-9.1023 0.275394,-3.74792 4.644216,-7.78031 10.058496,-7.25536 5.68524,0.55125 8.84176,6.08463 8.14316,10.17035 0,0 -3e-5,2e-5 -3e-5,2e-5 z"
       inkscape:path-effect="#path-effect1664-9-6-3"
       inkscape:original-d="m 109.0758,265.59135 c -3.57945,-3.82454 -9.27871,-3.3526 -13.563115,-0.16153 -4.415549,3.28872 -5.559826,7.75244 -1.96257,11.59603 1.958902,2.09303 4.975137,3.33399 7.921065,3.27105 2.18414,-0.0445 4.29067,-0.80615 6.12683,-2.17374 4.50298,-3.35386 5.12844,-8.63113 1.47777,-12.53181 z m -0.41991,0.90528 c 2.59999,2.77804 3.27506,7.03469 -0.94377,10.1769 -3.93465,2.93057 -10.653852,2.89542 -13.236023,0.13641 -2.600009,-2.77804 -2.311835,-8.33077 1.775842,-11.37531 4.022091,-2.99566 9.821761,-1.69701 12.403951,1.06197 z"
       sodipodi:nodetypes="ssscssscsssc" />
  </g>
</svg>
